<svg width="93" height="46" viewBox="0 0 93 46" fill="none" xmlns="http://www.w3.org/2000/svg">
<mask id="mask0_12316_16430" style="mask-type:luminance" maskUnits="userSpaceOnUse" x="0" y="0" width="93" height="46">
<path d="M92.4862 0.266663H0.660156V45.6094H92.4862V0.266663Z" fill="white"/>
</mask>
<g mask="url(#mask0_12316_16430)">
<path d="M62.0039 8.74323C62.0039 17.2595 66.9231 25.4195 68.9154 28.2206C69.1435 28.5477 69.4464 28.8172 69.7997 29.007C70.153 29.1969 70.5467 29.3019 70.9488 29.3134H83.5421C83.9457 29.31 84.3424 29.2085 84.697 29.0179C85.0517 28.8274 85.3533 28.5535 85.5753 28.2206C87.5676 25.3628 92.4868 17.2028 92.4868 8.74323H62.0039Z" fill="#43A0D6"/>
<path d="M59.8379 36.7373C60.584 35.5228 61.2563 34.3083 61.8794 33.0856C61.2727 34.3417 60.591 35.5611 59.8379 36.7373Z" fill="#002C6A"/>
<path d="M63.3549 30.1631C62.986 30.8918 62.6171 31.6853 62.248 32.4141C62.6171 31.6853 62.9696 30.9566 63.3549 30.1631Z" fill="#002C6A"/>
<path d="M74.2434 8.79974H69.8405C69.6848 10.1436 69.4388 11.5764 69.1354 13.0741C68.9387 14.0212 68.5862 15.8346 67.6761 18.9512C67.217 20.5136 65.4378 25.4922 65.0608 26.237C64.9951 26.1723 64.3228 25.0874 64.0195 24.5532C63.2998 23.3024 62.6564 22.0102 62.0927 20.6836C62.019 20.5055 61.5271 19.2184 61.4451 18.9917C61.2318 18.4089 60.8875 17.3727 60.7317 16.9355C59.8793 14.2897 59.3104 11.5628 59.0347 8.79974H52.123V12.2078H55.091C55.502 14.4254 56.0998 16.6053 56.8784 18.7246C58.1531 22.3398 59.9658 25.7474 62.2567 28.8356C62.3715 28.9976 62.8799 29.6452 63.0766 29.8151L63.3717 30.1632C63.0028 30.8918 62.6339 31.6851 62.2649 32.4137C62.142 32.6566 62.019 32.8427 61.896 33.0857C61.2155 34.308 60.535 35.5789 59.8545 36.7367H63.8718C64.6917 35.4009 65.5936 34.057 66.3315 32.6889C68.534 28.4432 70.4114 24.0406 71.9476 19.5179C73.0275 16.018 73.7956 12.4316 74.2434 8.79974Z" fill="#002C6A"/>
<path d="M63.053 41.3672C63.053 41.8859 62.8973 42.3931 62.6054 42.8244C62.3135 43.2558 61.8986 43.5919 61.4132 43.7905C60.9278 43.9889 60.3937 44.0409 59.8784 43.9396C59.3631 43.8385 58.8898 43.5887 58.5183 43.2219C58.1467 42.855 57.8938 42.3877 57.7913 41.8789C57.6888 41.3701 57.7414 40.8427 57.9424 40.3635C58.1435 39.8842 58.484 39.4745 58.9208 39.1864C59.3577 38.8982 59.8712 38.7443 60.3966 38.7443C61.0999 38.7486 61.773 39.0263 62.2702 39.5172C62.7674 40.0082 63.0488 40.6729 63.053 41.3672Z" fill="#002C6A"/>
<path d="M87.0589 41.367C87.0589 41.8858 86.903 42.3929 86.6111 42.8242C86.3192 43.2555 85.9044 43.5917 85.419 43.7902C84.9336 43.9888 84.3995 44.0407 83.8842 43.9395C83.3689 43.8383 82.8956 43.5884 82.5241 43.2217C82.1526 42.8549 81.8997 42.3875 81.7972 41.8787C81.6947 41.3699 81.7472 40.8426 81.9482 40.3633C82.1493 39.8841 82.4898 39.4744 82.9266 39.1862C83.3635 38.898 83.877 38.7441 84.4025 38.7441C84.7522 38.7408 85.0991 38.8065 85.4229 38.9372C85.7467 39.0679 86.0408 39.2609 86.2881 39.5051C86.5355 39.7494 86.731 40.0398 86.8633 40.3595C86.9957 40.6791 87.0621 41.0217 87.0589 41.367Z" fill="#002C6A"/>
<path d="M10.843 30.7704C6.39929 30.7704 3.80848 28.52 3.80848 23.2256V12.1512H0.660156V8.67839H3.80848V3.74835L8.18661 3.50549V8.67839H13.6224V12.1512H8.18661V23.169C8.18661 26.0266 9.42462 27.1194 11.5809 27.1194C12.4347 27.1225 13.2854 27.022 14.1143 26.82L14.3603 30.2847C13.2188 30.6182 12.0334 30.7819 10.843 30.7704Z" fill="#002C6A"/>
<path d="M27.9361 8.1279C28.9721 8.11584 30.0062 8.21903 31.0188 8.43552L30.4039 12.0865C29.7071 11.8688 28.9783 11.7675 28.2476 11.7869C26.4956 11.7563 24.7604 12.1305 23.1808 12.8798V30.2847H18.8027V10.2003C21.6453 8.82538 24.7707 8.11621 27.9361 8.1279Z" fill="#002C6A"/>
<path d="M41.3903 30.7704C35.6512 30.7704 32.8145 28.0342 32.8145 24.2942C32.8145 19.858 36.4547 17.6642 41.3903 17.6642C42.9446 17.6672 44.4943 17.8299 46.0145 18.15V16.4095C46.0145 13.4303 44.3747 11.787 40.8984 11.787C38.8879 11.7677 36.8934 12.1391 35.028 12.8799L34.1672 9.40699C36.4604 8.58343 38.8846 8.17217 41.3247 8.19269C47.3098 8.19269 50.2777 11.2365 50.2777 16.6523V28.8843C47.5166 30.2227 44.4645 30.8704 41.3903 30.7704ZM45.9571 26.6338V21.0318C44.6156 20.7063 43.239 20.5431 41.8576 20.5461C39.1438 20.5461 37.1679 21.4609 37.1679 24.1404C37.1679 26.3909 38.8077 27.5486 41.7347 27.5486C43.1993 27.6185 44.6566 27.3028 45.9571 26.6338Z" fill="#002C6A"/>
<path d="M7.92016 34.5083V35.9033H3.49516V38.9783H6.94516V40.3733H3.49516V44.9333H1.78516V34.5083H7.92016ZM10.8549 35.5733C10.5449 35.5733 10.2849 35.4683 10.0749 35.2583C9.86488 35.0483 9.75988 34.7883 9.75988 34.4783C9.75988 34.1683 9.86488 33.9083 10.0749 33.6983C10.2849 33.4883 10.5449 33.3833 10.8549 33.3833C11.1549 33.3833 11.4099 33.4883 11.6199 33.6983C11.8299 33.9083 11.9349 34.1683 11.9349 34.4783C11.9349 34.7883 11.8299 35.0483 11.6199 35.2583C11.4099 35.4683 11.1549 35.5733 10.8549 35.5733ZM11.6949 36.6683V44.9333H9.98488V36.6683H11.6949ZM18.59 36.5333C19.24 36.5333 19.82 36.6683 20.33 36.9383C20.85 37.2083 21.255 37.6083 21.545 38.1383C21.835 38.6683 21.98 39.3083 21.98 40.0583V44.9333H20.285V40.3133C20.285 39.5733 20.1 39.0083 19.73 38.6183C19.36 38.2183 18.855 38.0183 18.215 38.0183C17.575 38.0183 17.065 38.2183 16.685 38.6183C16.315 39.0083 16.13 39.5733 16.13 40.3133V44.9333H14.42V36.6683H16.13V37.6133C16.41 37.2733 16.765 37.0083 17.195 36.8183C17.635 36.6283 18.1 36.5333 18.59 36.5333ZM24.0712 40.7633C24.0712 39.9333 24.2412 39.1983 24.5812 38.5583C24.9312 37.9183 25.4012 37.4233 25.9912 37.0733C26.5912 36.7133 27.2562 36.5333 27.9862 36.5333C28.5262 36.5333 29.0562 36.6533 29.5762 36.8933C30.1062 37.1233 30.5262 37.4333 30.8362 37.8233V33.8333H32.5612V44.9333H30.8362V43.6883C30.5562 44.0883 30.1662 44.4183 29.6662 44.6783C29.1762 44.9383 28.6112 45.0683 27.9712 45.0683C27.2512 45.0683 26.5912 44.8883 25.9912 44.5283C25.4012 44.1583 24.9312 43.6483 24.5812 42.9983C24.2412 42.3383 24.0712 41.5933 24.0712 40.7633ZM30.8362 40.7933C30.8362 40.2233 30.7162 39.7283 30.4762 39.3083C30.2462 38.8883 29.9412 38.5683 29.5612 38.3483C29.1812 38.1283 28.7712 38.0183 28.3312 38.0183C27.8912 38.0183 27.4812 38.1283 27.1012 38.3483C26.7212 38.5583 26.4112 38.8733 26.1712 39.2933C25.9412 39.7033 25.8262 40.1933 25.8262 40.7633C25.8262 41.3333 25.9412 41.8333 26.1712 42.2633C26.4112 42.6933 26.7212 43.0233 27.1012 43.2533C27.4912 43.4733 27.9012 43.5833 28.3312 43.5833C28.7712 43.5833 29.1812 43.4733 29.5612 43.2533C29.9412 43.0333 30.2462 42.7133 30.4762 42.2933C30.7162 41.8633 30.8362 41.3633 30.8362 40.7933ZM42.8622 40.5983C42.8622 40.9083 42.8422 41.1883 42.8022 41.4383H36.4872C36.5372 42.0983 36.7822 42.6283 37.2222 43.0283C37.6622 43.4283 38.2022 43.6283 38.8422 43.6283C39.7622 43.6283 40.4122 43.2433 40.7922 42.4733H42.6372C42.3872 43.2333 41.9322 43.8583 41.2722 44.3483C40.6222 44.8283 39.8122 45.0683 38.8422 45.0683C38.0522 45.0683 37.3422 44.8933 36.7122 44.5433C36.0922 44.1833 35.6022 43.6833 35.2422 43.0433C34.8922 42.3933 34.7172 41.6433 34.7172 40.7933C34.7172 39.9433 34.8872 39.1983 35.2272 38.5583C35.5772 37.9083 36.0622 37.4083 36.6822 37.0583C37.3122 36.7083 38.0322 36.5333 38.8422 36.5333C39.6222 36.5333 40.3172 36.7033 40.9272 37.0433C41.5372 37.3833 42.0122 37.8633 42.3522 38.4833C42.6922 39.0933 42.8622 39.7983 42.8622 40.5983ZM41.0772 40.0583C41.0672 39.4283 40.8422 38.9233 40.4022 38.5433C39.9622 38.1633 39.4172 37.9733 38.7672 37.9733C38.1772 37.9733 37.6722 38.1633 37.2522 38.5433C36.8322 38.9133 36.5822 39.4183 36.5022 40.0583H41.0772ZM46.735 37.8683C46.985 37.4483 47.315 37.1233 47.725 36.8933C48.145 36.6533 48.64 36.5333 49.21 36.5333V38.3033H48.775C48.105 38.3033 47.595 38.4733 47.245 38.8133C46.905 39.1533 46.735 39.7433 46.735 40.5833V44.9333H45.025V36.6683H46.735V37.8683Z" fill="#002861"/>
</g>
</svg>
